<svg width="31" height="36" viewBox="0 0 31 36" fill="none" xmlns="http://www.w3.org/2000/svg">
<path d="M7.75 11.5714L2.58333 14.1429L15.5 20.5714L28.4167 14.1429L23.25 11.5714" stroke="white" stroke-width="2" stroke-linecap="round" stroke-linejoin="round"/>
<path d="M2.58333 27L15.5 33.4286L28.4167 27" stroke="white" stroke-width="2" stroke-linecap="round" stroke-linejoin="round"/>
<path d="M2.58333 20.5714L15.5 27L28.4167 20.5714" stroke="white" stroke-width="2" stroke-linecap="round" stroke-linejoin="round"/>
<path d="M20.6667 8.66605C20.6667 12.4063 15.5 15.6122 15.5 15.6122C15.5 15.6122 10.3333 12.4063 10.3333 8.66605C10.3333 7.39065 10.8777 6.16749 11.8466 5.26564C12.8156 4.3638 14.1297 3.85715 15.5 3.85715C16.8703 3.85715 18.1844 4.3638 19.1534 5.26564C20.1223 6.16749 20.6667 7.39065 20.6667 8.66605Z" stroke="white" stroke-width="2" stroke-linecap="round" stroke-linejoin="round"/>
<path d="M15.5 10.269C16.4512 10.269 17.2222 9.55135 17.2222 8.66605C17.2222 7.78076 16.4512 7.06308 15.5 7.06308C14.5488 7.06308 13.7778 7.78076 13.7778 8.66605C13.7778 9.55135 14.5488 10.269 15.5 10.269Z" stroke="white" stroke-width="2" stroke-linecap="round" stroke-linejoin="round"/>
</svg>
