<svg width="18" height="18" viewBox="0 0 18 18" fill="none" xmlns="http://www.w3.org/2000/svg">
<path d="M17.7499 17.7497V11.3404C17.7499 8.19041 17.0718 5.78418 13.3968 5.78418C11.625 5.78418 10.4437 6.74667 9.96247 7.66542H9.91872V6.06855H6.44061V17.7497H10.0718V11.9529C10.0718 10.4216 10.3562 8.95603 12.2375 8.95603C14.0968 8.95603 14.1187 10.6841 14.1187 12.0404V17.7279H17.7499V17.7497Z" fill="white"/>
<path d="M0.534393 6.06934H4.16562V17.7505H0.534393V6.06934Z" fill="white"/>
<path d="M2.34999 0.25C1.19062 0.25 0.25 1.19062 0.25 2.34999C0.25 3.50935 1.19062 4.47185 2.34999 4.47185C3.50935 4.47185 4.44997 3.50935 4.44997 2.34999C4.44997 1.19062 3.50935 0.25 2.34999 0.25Z" fill="white"/>
</svg>
