<svg width="43" height="44" viewBox="0 0 43 44" fill="none" xmlns="http://www.w3.org/2000/svg">
<g clip-path="url(#clip0_145_25)">
<path d="M37.1841 32.2868L30.6016 24.6873H33.1254C33.8677 24.6873 34.5244 24.2674 34.8375 23.5905C35.1506 22.9153 35.0476 22.141 34.5673 21.5707L28.1298 13.9377H30.5102C31.26 13.9377 31.9356 13.4884 32.2289 12.7947C32.519 12.1119 32.3822 11.3174 31.8796 10.7724L22.794 0.90626C22.2971 0.36458 21.3702 0.36458 20.8726 0.90626L11.7861 10.7724C11.2835 11.3174 11.1476 12.1119 11.4368 12.7947C11.7301 13.4884 12.4066 13.9377 13.1564 13.9377H15.5367L9.09844 21.5724C8.61973 22.1418 8.51674 22.9153 8.82902 23.5913C9.14211 24.2674 9.79797 24.6873 10.5412 24.6873H13.0649L6.48243 32.2868C5.98807 32.857 5.87601 33.6381 6.18911 34.3242C6.49809 35.0002 7.17784 35.4369 7.92021 35.4369H19.1967V37.4903L16.7009 41.555C16.2626 42.4486 16.9003 43.5 17.88 43.5H25.7865C26.7662 43.5 27.4039 42.4486 26.9656 41.555L24.4699 37.4903V35.4369H35.7463C36.4887 35.4369 37.1685 35.0002 37.4774 34.3242C37.7905 33.6381 37.6785 32.857 37.1841 32.2868Z" fill="#6A9C31"/>
</g>
<defs>
<clipPath id="clip0_145_25">
<rect width="42" height="43" fill="white" transform="translate(0.833252 0.5)"/>
</clipPath>
</defs>
</svg>
