<svg width="16" height="18" viewBox="0 0 16 18" fill="none" xmlns="http://www.w3.org/2000/svg">
<path d="M14.75 7.5C14.75 12.75 8 17.25 8 17.25C8 17.25 1.25 12.75 1.25 7.5C1.25 5.70979 1.96116 3.9929 3.22703 2.72703C4.4929 1.46116 6.20979 0.75 8 0.75C9.79021 0.75 11.5071 1.46116 12.773 2.72703C14.0388 3.9929 14.75 5.70979 14.75 7.5Z" stroke="#63C600" stroke-width="2" stroke-linecap="round" stroke-linejoin="round"/>
<path d="M8 9.75C9.24264 9.75 10.25 8.74264 10.25 7.5C10.25 6.25736 9.24264 5.25 8 5.25C6.75736 5.25 5.75 6.25736 5.75 7.5C5.75 8.74264 6.75736 9.75 8 9.75Z" stroke="#63C600" stroke-width="2" stroke-linecap="round" stroke-linejoin="round"/>
</svg>
