<svg width="24" height="29" viewBox="0 0 24 29" fill="none" xmlns="http://www.w3.org/2000/svg">
<path d="M6 9.83334L2 11.8333L12 16.8333L22 11.8333L18 9.83334" stroke="black" stroke-width="2" stroke-linecap="round" stroke-linejoin="round"/>
<path d="M2 21.8333L12 26.8333L22 21.8333" stroke="black" stroke-width="2" stroke-linecap="round" stroke-linejoin="round"/>
<path d="M2 16.8333L12 21.8333L22 16.8333" stroke="black" stroke-width="2" stroke-linecap="round" stroke-linejoin="round"/>
<path d="M16 7.5736C16 10.4827 12 12.9762 12 12.9762C12 12.9762 8 10.4827 8 7.5736C8 6.58162 8.42143 5.63028 9.17157 4.92884C9.92172 4.22741 10.9391 3.83334 12 3.83334C13.0609 3.83334 14.0783 4.22741 14.8284 4.92884C15.5786 5.63028 16 6.58162 16 7.5736Z" stroke="black" stroke-width="1.5" stroke-linecap="round" stroke-linejoin="round"/>
<path d="M12 8.82036C12.7364 8.82036 13.3333 8.26217 13.3333 7.5736C13.3333 6.88504 12.7364 6.32685 12 6.32685C11.2636 6.32685 10.6667 6.88504 10.6667 7.5736C10.6667 8.26217 11.2636 8.82036 12 8.82036Z" stroke="black" stroke-width="1.5" stroke-linecap="round" stroke-linejoin="round"/>
</svg>
