<svg width="34" height="35" viewBox="0 0 34 35" fill="none" xmlns="http://www.w3.org/2000/svg">
<path d="M25.5 11.8333C25.5 9.579 24.6045 7.417 23.0104 5.82294C21.4163 4.22888 19.2543 3.33334 17 3.33334C14.7457 3.33334 12.5837 4.22888 10.9896 5.82294C9.39553 7.417 8.5 9.579 8.5 11.8333C8.5 21.75 4.25 24.5833 4.25 24.5833H29.75C29.75 24.5833 25.5 21.75 25.5 11.8333Z" fill="#060E28" stroke="#060E28" stroke-width="2" stroke-linecap="round" stroke-linejoin="round"/>
<path d="M19.4507 30.25C19.2017 30.6794 18.8442 31.0358 18.4141 31.2835C17.9839 31.5312 17.4963 31.6616 16.9999 31.6616C16.5035 31.6616 16.0159 31.5312 15.5858 31.2835C15.1556 31.0358 14.7981 30.6794 14.5491 30.25" stroke="#060E28" stroke-width="2" stroke-linecap="round" stroke-linejoin="round"/>
</svg>
