<svg width="18" height="17" viewBox="0 0 18 17" fill="none" xmlns="http://www.w3.org/2000/svg">
<path d="M16.9862 7.45829H10.0417V0.513848C10.0417 0.322008 9.88637 0.166626 9.69453 0.166626H8.30564C8.1138 0.166626 7.95842 0.322008 7.95842 0.513848V7.45829H1.01397C0.82213 7.45829 0.666748 7.61368 0.666748 7.80552V9.1944C0.666748 9.38624 0.82213 9.54163 1.01397 9.54163H7.95842V16.4861C7.95842 16.6779 8.1138 16.8333 8.30564 16.8333H9.69453C9.88637 16.8333 10.0417 16.6779 10.0417 16.4861V9.54163H16.9862C17.178 9.54163 17.3334 9.38624 17.3334 9.1944V7.80552C17.3334 7.61368 17.178 7.45829 16.9862 7.45829Z" fill="black"/>
</svg>
