<svg width="25" height="25" viewBox="0 0 25 25" fill="none" xmlns="http://www.w3.org/2000/svg">
<path d="M16.5 4.5H18.5C19.0304 4.5 19.5391 4.71071 19.9142 5.08579C20.2893 5.46086 20.5 5.96957 20.5 6.5V20.5C20.5 21.0304 20.2893 21.5391 19.9142 21.9142C19.5391 22.2893 19.0304 22.5 18.5 22.5H6.5C5.96957 22.5 5.46086 22.2893 5.08579 21.9142C4.71071 21.5391 4.5 21.0304 4.5 20.5V6.5C4.5 5.96957 4.71071 5.46086 5.08579 5.08579C5.46086 4.71071 5.96957 4.5 6.5 4.5H8.5" stroke="#060E28" stroke-width="2" stroke-linecap="round" stroke-linejoin="round"/>
<path d="M15.5 2.5H9.5C8.94772 2.5 8.5 2.94772 8.5 3.5V5.5C8.5 6.05228 8.94772 6.5 9.5 6.5H15.5C16.0523 6.5 16.5 6.05228 16.5 5.5V3.5C16.5 2.94772 16.0523 2.5 15.5 2.5Z" stroke="#060E28" stroke-width="2" stroke-linecap="round" stroke-linejoin="round"/>
</svg>
