<svg width="22" height="22" viewBox="0 0 22 22" fill="none" xmlns="http://www.w3.org/2000/svg">
<path d="M14.743 9.285C16.337 9.83541 17.4284 11.3411 17.4284 13.0549C17.4284 15.2571 15.6432 17.0421 13.4411 17.0421C11.9685 17.0421 10.6382 16.2376 9.94251 14.9697C9.81715 14.7412 9.53032 14.6576 9.30185 14.783C9.07338 14.9084 8.98979 15.1952 9.11516 15.4236C9.97498 16.9907 11.6206 17.9859 13.4411 17.9859C16.1645 17.9859 18.3721 15.7783 18.3721 13.0549C18.3721 10.9355 17.0227 9.07377 15.0511 8.39295C14.8047 8.30788 14.5361 8.43863 14.451 8.68496C14.366 8.93128 14.4967 9.19994 14.743 9.285Z" fill="white"/>
<path d="M12.5467 8.94502C12.5467 6.74296 10.7615 4.95774 8.55943 4.95774C6.35737 4.95774 4.57215 6.74296 4.57215 8.94502C4.57215 11.1471 6.35737 12.9323 8.55943 12.9323C10.7615 12.9323 12.5467 11.1471 12.5467 8.94502ZM13.4904 8.94502C13.4904 11.6683 11.2827 13.876 8.55943 13.876C5.83615 13.876 3.62842 11.6683 3.62842 8.94502C3.62842 6.22174 5.83615 4.01401 8.55943 4.01401C11.2827 4.01401 13.4904 6.22174 13.4904 8.94502Z" fill="white"/>
<path d="M18.3141 20.2014C19.3565 20.2014 20.2015 19.3564 20.2015 18.3139V3.68606C20.2015 2.6436 19.3565 1.79859 18.3141 1.79859H3.68618C2.64372 1.79859 1.79871 2.6436 1.79871 3.68606V18.3139C1.79871 19.3564 2.64372 20.2014 3.68618 20.2014H18.3141ZM18.3141 21.1451H3.68618C2.12252 21.1451 0.85498 19.8776 0.85498 18.3139V3.68606C0.85498 2.1224 2.12252 0.854858 3.68618 0.854858H18.3141C19.8777 0.854858 21.1453 2.1224 21.1453 3.68606V18.3139C21.1453 19.8776 19.8777 21.1451 18.3141 21.1451Z" fill="white"/>
</svg>
